<?xml version="1.0" encoding="UTF-8"?>
<!DOCTYPE svg PUBLIC "-//W3C//DTD SVG 1.1//EN" "http://www.w3.org/Graphics/SVG/1.1/DTD/svg11.dtd">
<!-- Creator: CorelDRAW X7 -->
<svg xmlns="http://www.w3.org/2000/svg" xml:space="preserve" width="115.4104mm" height="35.3412mm" version="1.1" style="shape-rendering:geometricPrecision; text-rendering:geometricPrecision; image-rendering:optimizeQuality; fill-rule:evenodd; clip-rule:evenodd"
viewBox="0 0 616 189"
 xmlns:xlink="http://www.w3.org/1999/xlink">
 <defs>
  <style type="text/css">
   <![CDATA[
    .fil0 {fill:black;fill-rule:nonzero}
    .fil3 {fill:black;fill-rule:nonzero}
    .fil1 {fill:url(#id0)}
    .fil2 {fill:url(#id1)}
   ]]>
  </style>
  <linearGradient id="id0" gradientUnits="userSpaceOnUse" x1="241.412" y1="47.2291" x2="462.874" y2="47.2291">
   <stop offset="0" style="stop-opacity:1; stop-color:#94C21F"/>
   <stop offset="0.658824" style="stop-opacity:1; stop-color:#C9C627"/>
   <stop offset="0.321569" style="stop-opacity:1; stop-color:#94C21F"/>
   <stop offset="1" style="stop-opacity:1; stop-color:#FFCB30"/>
  </linearGradient>
  <linearGradient id="id1" gradientUnits="userSpaceOnUse" x1="241.412" y1="11.7758" x2="342.591" y2="11.7758">
   <stop offset="0" style="stop-opacity:1; stop-color:#DC2B85"/>
   <stop offset="1" style="stop-opacity:1; stop-color:#765297"/>
  </linearGradient>
 </defs>
 <g id="Capa_x0020_1">
  <metadata id="CorelCorpID_0Corel-Layer"/>
  <g id="_1097887920">
   <path class="fil0" d="M136 131c1,0 3,0 5,0 1,-1 3,-1 4,-2 1,-1 1,-1 2,-1 1,-1 1,-1 2,-2 0,-1 1,-1 1,-2 1,0 1,-1 2,-2 0,-1 0,-1 1,-2 0,-1 0,-2 0,-2 0,0 1,0 1,-1 0,0 0,-1 0,-2 0,-1 0,-2 0,-3 0,-1 0,-2 0,-3 0,0 0,-1 0,-2 -1,-1 -1,-2 -1,-3 -1,0 -1,-1 -1,-2 -1,0 -1,-1 -2,-2 0,0 -1,-1 -1,-2 -1,0 -1,-1 -2,-1 -1,-1 -1,-1 -2,-1 -1,-1 -1,-1 -2,-2 -1,0 -2,0 -2,0 -1,0 -2,-1 -3,-1 -1,0 -2,0 -2,0 -2,0 -4,0 -6,1 -1,0 -3,1 -4,2 -1,0 -1,0 -2,1 -1,0 -1,1 -2,1 0,1 -1,2 -1,2 -1,1 -1,2 -2,2 0,2 -1,3 -1,5 -1,2 -1,3 -1,5 0,2 0,4 1,6 0,1 1,3 1,4 1,1 1,2 2,2 0,1 1,1 1,2 1,1 1,1 2,2 1,0 1,0 2,1 1,0 1,1 2,1 1,0 2,0 2,1 1,0 2,0 3,0 1,0 2,0 3,0zm0 18c-2,0 -4,0 -6,0l0 0c-2,0 -3,0 -5,-1 -2,0 -3,-1 -5,-1 -1,-1 -3,-2 -5,-2 -1,-1 -2,-2 -4,-3 -1,-1 -2,-2 -4,-3 -1,-1 -2,-2 -3,-4 -1,-1 -2,-2 -3,-4 0,-1 -1,-3 -2,-4 0,-2 -1,-3 -1,-5l0 0c-1,-1 -1,-3 -1,-5l0 0c-1,-1 -1,-3 -1,-5 0,-3 1,-7 2,-10 0,-3 2,-6 3,-9 1,-1 2,-3 3,-4 1,-1 2,-2 3,-3 2,-2 3,-3 4,-4 2,-1 3,-1 4,-2 2,-1 4,-2 5,-2 2,-1 3,-1 5,-2 2,0 3,0 5,-1 2,0 4,0 6,0 1,0 3,0 5,0 2,1 3,1 5,1 2,1 3,1 5,2 1,0 3,1 4,2 2,1 3,1 5,2 1,1 2,2 3,4 2,1 3,2 4,3 1,1 2,3 3,4 0,2 1,3 2,5 0,1 1,3 1,4 1,2 1,3 1,5 1,2 1,3 1,5 0,4 -1,7 -2,10 0,3 -2,6 -3,9 -1,2 -2,3 -3,4 -1,2 -2,3 -4,4 -1,1 -2,2 -3,3 -2,1 -3,2 -5,3 -1,0 -3,1 -4,2 -2,0 -3,1 -5,1 -2,1 -3,1 -5,1l0 0c-2,0 -4,0 -5,0z"/>
   <path class="fil0" d="M184 76l16 0c0,0 1,0 1,1 1,0 1,1 1,2l0 52 31 0c1,0 2,0 2,0 0,1 1,1 1,2l0 13c0,1 -1,1 -1,2 0,0 -1,0 -2,0l-49 0c-1,0 -1,0 -2,0 0,-1 0,-1 0,-2l0 -67c0,-1 0,-2 0,-2 1,-1 1,-1 2,-1z"/>
   <path class="fil0" d="M273 131c2,0 4,0 6,0 1,-1 3,-1 4,-2 1,-1 1,-1 2,-1 1,-1 1,-1 2,-2 0,-1 1,-1 1,-2 1,0 1,-1 2,-2 0,-1 0,-1 1,-2 0,-1 0,-2 0,-2 0,0 0,0 0,-1 1,0 1,-1 1,-2 0,-1 0,-2 0,-3 0,-1 0,-2 0,-3 0,0 0,-1 -1,-2 0,-1 0,-2 0,-3 -1,0 -1,-1 -1,-2 -1,0 -1,-1 -2,-2 0,0 -1,-1 -1,-2 -1,0 -1,-1 -2,-1 -1,-1 -1,-1 -2,-1 -1,-1 -1,-1 -2,-2 -1,0 -2,0 -2,0 -1,0 -2,-1 -3,-1 -1,0 -2,0 -3,0 -1,0 -3,0 -5,1 -1,0 -3,1 -4,2 -1,0 -1,0 -2,1 -1,0 -1,1 -2,1 0,1 -1,2 -1,2 -1,1 -1,2 -2,2 -1,2 -1,3 -2,5 0,2 0,3 0,5 0,2 0,4 0,6 1,1 1,3 2,4 1,1 1,2 2,2 0,1 1,1 1,2 1,1 1,1 2,2 1,0 1,0 2,1 1,0 1,1 2,1 1,0 2,0 2,1 1,0 2,0 3,0 1,0 2,0 2,0zm0 18c-1,0 -3,0 -5,0l0 0c-2,0 -3,0 -5,-1 -2,0 -3,-1 -5,-1 -2,-1 -3,-2 -5,-2 -1,-1 -2,-2 -4,-3 -1,-1 -2,-2 -4,-3 -1,-1 -2,-2 -3,-4 -1,-1 -2,-2 -3,-4 -1,-1 -1,-3 -2,-4 -1,-2 -1,-3 -1,-5l-1 0c0,-1 0,-3 0,-5l0 0c-1,-1 -1,-3 -1,-5 0,-3 1,-7 2,-10 0,-3 2,-6 3,-9 1,-1 2,-3 3,-4 1,-1 2,-2 3,-3 2,-2 3,-3 4,-4 2,-1 3,-1 4,-2 2,-1 3,-2 5,-2 2,-1 3,-1 5,-2 2,0 3,0 5,-1 2,0 4,0 5,0 2,0 4,0 6,0 2,1 3,1 5,1 2,1 3,1 5,2 1,0 3,1 4,2 2,1 3,1 5,2 1,1 2,2 3,4 2,1 3,2 4,3 1,1 2,3 3,4 0,2 1,3 2,5 0,1 1,3 1,4 1,2 1,3 1,5 1,2 1,3 1,5 0,4 -1,7 -2,10 0,3 -2,6 -3,9 -1,2 -2,3 -3,4 -1,2 -2,3 -4,4 -1,1 -2,2 -3,3 -2,1 -3,2 -5,3 -1,0 -3,1 -4,2 -2,0 -3,1 -5,1 -2,1 -3,1 -5,1l0 0c-2,0 -4,0 -6,0z"/>
   <path class="fil0" d="M350 112c2,0 4,0 6,0 0,-1 1,-1 2,-1 0,-1 1,-1 1,-1 1,-1 2,-2 2,-3 1,-1 1,-2 1,-4 0,-2 0,-3 -1,-4 0,-1 -1,-2 -2,-3 0,0 -1,-1 -1,-1 -1,0 -2,0 -2,-1 -1,0 -2,0 -3,0 -1,0 -2,0 -3,0l-10 0 0 18 10 0zm1 -36c3,0 6,0 9,1 3,0 5,1 8,2 1,1 2,1 3,2 1,1 2,1 3,2l0 0 0 0 0 0c1,1 2,2 3,3 0,1 1,2 2,3 0,1 1,2 2,3 0,1 0,2 1,3 0,2 0,3 0,4 1,1 1,3 1,4 0,1 0,3 -1,4 0,1 0,2 0,4 -1,1 -1,2 -1,3l-1 0 1 0c-1,1 -2,2 -2,3 -1,1 -2,2 -2,3 -1,1 -2,2 -3,3l0 0 0 0 0 0 0 0c-1,0 -2,1 -3,2 -1,0 -2,1 -3,2 -3,1 -5,1 -8,2 -3,0 -6,1 -9,1l-11 0 0 16c0,1 0,1 -1,2 0,0 -1,0 -1,0l-16 0c-1,0 -1,0 -2,0 0,-1 0,-1 0,-2l0 -67c0,-1 0,-2 0,-2 1,-1 1,-1 2,-1l29 0z"/>
   <path class="fil0" d="M425 131c2,0 3,0 5,0 2,-1 3,-1 4,-2 1,-1 2,-1 2,-1 1,-1 2,-1 2,-2 1,-1 1,-1 2,-2 0,0 1,-1 1,-2 0,-1 1,-1 1,-2 0,-1 1,-2 1,-2 0,0 0,0 0,-1 0,0 0,-1 0,-2 0,-1 0,-2 0,-3 0,-1 0,-2 0,-3 0,0 0,-1 0,-2 0,-1 -1,-2 -1,-3 0,0 -1,-1 -1,-2 0,0 -1,-1 -1,-2 -1,0 -1,-1 -2,-2 0,0 -1,-1 -2,-1 0,-1 -1,-1 -2,-1 0,-1 -1,-1 -2,-2 0,0 -1,0 -2,0 -1,0 -2,-1 -3,-1 0,0 -1,0 -2,0 -2,0 -4,0 -5,1 -2,0 -3,1 -5,2 0,0 -1,0 -2,1 0,0 -1,1 -1,1 -1,1 -2,2 -2,2 0,1 -1,2 -1,2 -1,2 -2,3 -2,5 -1,2 -1,3 -1,5 0,2 0,4 1,6 0,1 1,3 2,4 0,1 1,2 1,2 0,1 1,1 2,2 0,1 1,1 1,2 1,0 2,0 2,1 1,0 2,1 2,1 1,0 2,0 3,1 1,0 1,0 2,0 1,0 2,0 3,0zm0 18c-2,0 -4,0 -6,0l0 0c-1,0 -3,0 -5,-1 -1,0 -3,-1 -5,-1 -1,-1 -3,-2 -4,-2 -2,-1 -3,-2 -4,-3 -2,-1 -3,-2 -4,-3 -1,-1 -2,-2 -3,-4 -1,-1 -2,-2 -3,-4 -1,-1 -2,-3 -3,-4 0,-2 -1,-3 -1,-5l0 0c-1,-1 -1,-3 -1,-5l0 0c0,-1 0,-3 0,-5 0,-3 0,-7 1,-10 1,-3 2,-6 4,-9 1,-1 2,-3 3,-4 1,-1 2,-2 3,-3 1,-2 2,-3 4,-4 1,-1 2,-1 4,-2 1,-1 3,-2 4,-2 2,-1 4,-1 5,-2 2,0 4,0 5,-1 2,0 4,0 6,0 2,0 3,0 5,0 2,1 4,1 5,1 2,1 4,1 5,2 2,0 3,1 5,2 1,1 3,1 4,2 1,1 3,2 4,4 1,1 2,2 3,3 1,1 2,3 3,4 1,2 2,3 2,5 1,1 1,3 2,4 0,2 1,3 1,5 0,2 0,3 0,5 0,4 0,7 -1,10 -1,3 -2,6 -4,9 -1,2 -2,3 -3,4 -1,2 -2,3 -3,4 -1,1 -3,2 -4,3 -1,1 -3,2 -4,3 -2,0 -3,1 -5,2 -1,0 -3,1 -5,1 -1,1 -3,1 -5,1l0 0c-2,0 -3,0 -5,0z"/>
   <path class="fil0" d="M473 76l16 0c1,0 1,0 2,1 0,0 0,1 0,2l0 52 32 0c0,0 1,0 1,0 1,1 1,1 1,2l0 13c0,1 0,1 -1,2 0,0 -1,0 -1,0l-50 0c0,0 -1,0 -1,0 -1,-1 -1,-1 -1,-2l0 -67c0,-1 0,-2 1,-2 0,-1 1,-1 1,-1z"/>
   <path class="fil0" d="M531 76l16 0c1,0 1,0 2,1 0,0 0,1 0,2l0 67c0,1 0,1 0,2 -1,0 -1,0 -2,0l-16 0c0,0 -1,0 -1,0 -1,-1 -1,-1 -1,-2l0 -67c0,-1 0,-2 1,-2 0,-1 1,-1 1,-1z"/>
   <path class="fil0" d="M585 149c-1,0 -3,0 -4,0 -1,0 -3,0 -4,0 -2,0 -3,-1 -4,-1 -1,0 -3,0 -4,-1 -1,0 -3,-1 -4,-1 -1,0 -2,-1 -3,-1 -1,-1 -2,-2 -3,-2 -1,-1 -2,-1 -3,-2 0,0 -1,-1 -1,-1 0,-1 0,-1 0,-2 0,0 0,0 0,0l6 -12c0,0 0,-1 1,-1 1,0 1,0 2,0 0,0 0,0 0,0l0 0 0 0 0 0c0,0 0,1 0,1l0 0c1,0 2,0 2,1 1,0 2,1 3,1 1,1 1,1 2,1 1,1 2,1 3,1 1,1 2,1 3,1 1,0 2,0 3,1 0,0 1,0 2,0 1,0 2,0 3,0 1,0 2,0 3,0 1,0 2,0 2,0l0 0 0 0c1,-1 2,-1 2,-1 1,0 1,0 2,-1 0,0 0,0 1,0 0,0 0,-1 0,-1l0 0 0 0c0,0 0,-1 1,-1l0 0 0 0c0,0 0,0 0,-1 0,0 0,-1 -1,-1 0,0 0,-1 0,-1 -1,0 -1,0 -1,0 0,-1 -1,-1 -1,-1 0,0 -1,0 -1,0 -1,-1 -1,-1 -1,-1 -1,0 -1,0 -2,0 0,-1 -1,-1 -2,-1 0,0 -1,0 -2,0 0,-1 -1,-1 -2,-1l0 0 0 0c-3,-1 -5,-1 -7,-2 -2,0 -4,-1 -6,-2 -2,0 -4,-1 -5,-2 -2,-1 -3,-3 -4,-4 -1,-1 -2,-2 -2,-3 -1,-1 -1,-2 -1,-3 -1,-1 -1,-2 -1,-3l0 0c0,-1 0,-2 0,-4 0,-2 0,-4 0,-6 1,-2 2,-4 3,-6l0 0 0 0c1,0 1,-1 2,-2 1,-1 2,-2 3,-2l0 0 0 0c0,-1 1,-2 2,-2 1,-1 3,-2 4,-2 1,-1 2,-1 3,-1 2,-1 3,-1 4,-1 2,-1 3,-1 5,-1 1,0 3,0 4,0 1,0 2,0 4,0 1,0 2,0 3,0 0,0 0,0 0,0 1,1 2,1 3,1 1,0 2,0 3,1 2,0 3,0 4,1 1,0 2,0 3,1 1,0 1,0 2,1 1,0 2,1 3,1 0,1 1,1 1,2l0 0c0,0 0,1 0,1 0,0 0,0 0,0l-5 12c0,1 -1,1 -1,1 -1,1 -1,1 -2,0l0 0c0,0 0,0 0,0 0,0 0,0 0,0l0 0 0 0c-3,-1 -6,-3 -9,-3 -3,-1 -6,-2 -9,-2 -1,0 -2,0 -3,0 0,1 -1,1 -2,1 -1,0 -1,0 -2,0 0,1 -1,1 -1,1 0,0 0,0 0,0l0 0c0,0 -1,1 -1,1 0,0 -1,0 -1,1 0,0 0,0 0,1 0,0 0,0 0,1 0,0 0,0 0,1 0,0 0,0 0,0 0,0 1,1 1,1 0,0 1,0 1,1 0,0 0,0 0,0 1,0 1,0 2,0 1,1 1,1 2,1 1,0 2,1 3,1l0 0c1,0 2,0 3,1 0,0 1,0 1,0l0 0c2,0 4,1 7,2 2,0 4,1 5,1 1,1 2,1 3,2 1,0 2,1 3,1 0,1 1,1 2,2 1,0 1,1 2,2 1,1 1,1 2,2 0,1 1,2 1,3l0 0c0,1 1,2 1,4 0,1 0,2 0,3 0,2 0,4 -1,6 -1,2 -1,4 -3,6l0 0c0,1 -1,2 -2,3 0,0 -1,1 -2,2 -1,1 -2,1 -3,2 -1,0 -2,1 -3,1 -2,1 -3,1 -4,2 -1,0 -3,0 -4,1 -1,0 -3,0 -4,0 -2,0 -3,0 -5,0z"/>
   <path class="fil0" d="M70 99l16 0c1,0 2,0 2,1 1,0 1,1 1,1l0 35c0,0 0,0 0,0 0,1 0,1 0,1l0 0c-1,1 -1,1 -1,1 -1,0 -1,1 -2,1 -1,1 -1,1 -2,1 0,1 -1,1 -2,2 0,0 -1,0 -2,1 0,0 -1,0 -2,1 -1,0 -1,0 -2,1 -1,0 -2,0 -3,1 0,0 -1,0 -2,0 -1,1 -2,1 -3,1 0,0 -1,0 -2,1 -1,0 -2,0 -3,0l0 0c0,0 -1,0 -2,1 -1,0 -2,0 -3,0 0,0 -1,0 -2,0 -1,0 -2,0 -3,0 0,0 -1,0 -2,0 -2,0 -5,0 -7,0 -2,0 -5,-1 -7,-1 -2,-1 -4,-1 -6,-2 -2,-1 -4,-2 -6,-3 -1,0 -2,-1 -3,-1 -1,-1 -2,-2 -3,-2 -1,-1 -1,-1 -2,-2 -1,-1 -2,-2 -3,-2 0,-1 -1,-2 -2,-2 0,-1 -1,-2 -2,-3 0,-1 -1,-2 -2,-2 0,-1 -1,-2 -1,-3 -1,-1 -1,-2 -2,-3l0 0c0,-1 -1,-2 -1,-3 -1,-1 -1,-2 -1,-3 -1,-1 -1,-2 -1,-3 -1,-1 -1,-2 -1,-3 0,-1 0,-2 -1,-3 0,-1 0,-2 0,-4 0,-1 0,-2 0,-3 0,-2 0,-4 0,-7 1,-2 1,-4 2,-6 0,-2 1,-4 2,-6 1,-2 2,-4 3,-6 0,-1 1,-2 1,-2 1,-1 2,-2 2,-3 1,-1 2,-2 2,-2l0 0c1,-1 2,-2 2,-3 1,0 2,-1 3,-2 1,0 2,-1 2,-2 1,0 2,-1 3,-1 1,-1 2,-1 3,-2 1,-1 2,-1 3,-1 1,-1 2,-1 3,-2 1,0 2,0 3,-1 1,0 2,0 3,-1 1,0 3,0 4,0 1,-1 2,-1 3,-1 1,0 3,0 4,0 1,0 2,0 3,0 1,0 2,0 3,0l0 0c1,0 2,0 3,0 1,0 2,0 3,0 1,1 2,1 3,1 1,0 2,0 3,0 1,1 1,1 2,1l0 0 0 0c1,0 2,1 3,1 1,0 2,1 3,1 0,0 1,1 2,1 1,0 2,1 2,1 1,1 2,1 3,2 0,0 1,1 2,1 0,0 1,1 1,1l0 0 0 0c1,1 2,1 2,2 1,0 1,1 2,1 0,1 1,1 1,2l0 0 0 0c0,0 0,0 0,0 1,0 1,1 1,1 0,1 0,2 -1,2l-11 10 0 0c-1,1 -1,1 -2,1 0,0 -1,0 -2,-1 0,0 -1,-1 -2,-2l0 0c-1,0 -1,-1 -2,-1 -1,-1 -2,-1 -3,-2 0,0 -1,-1 -2,-1 -1,0 -2,-1 -3,-1 -1,0 -2,-1 -3,-1 -1,0 -2,0 -3,0 -1,-1 -2,-1 -4,-1 -1,0 -3,0 -4,1 -1,0 -3,0 -4,0 -1,1 -2,1 -3,1 -2,1 -3,1 -4,2 0,0 -1,1 -2,1l0 0c0,0 -1,1 -1,1l0 0 0 0 0 0c-1,0 -1,1 -2,1 0,0 0,1 -1,1 0,1 -1,1 -1,2l0 0c-1,0 -1,1 -1,1l0 0c-1,0 -1,1 -1,1 -1,1 -1,2 -1,2 -1,1 -1,2 -2,3 0,2 -1,3 -1,4 0,1 -1,3 -1,4 0,1 0,3 0,4 0,2 0,3 0,4 0,1 1,3 1,4 0,1 1,2 1,4 1,1 1,2 2,3 0,1 0,1 1,2l0 0c0,0 0,1 1,1 0,1 1,1 1,1l0 0c0,1 1,1 1,2 1,0 1,1 1,1 1,0 1,1 2,1 0,0 1,1 1,1 1,1 1,1 2,1l0 0c1,1 2,1 3,2 2,0 3,1 4,1 1,0 3,0 4,1 1,0 3,0 4,0 2,0 3,0 5,0 1,-1 2,-1 4,-1 1,0 2,-1 4,-1 1,-1 2,-1 3,-2l0 -25c0,0 0,-1 1,-1 0,-1 1,-1 1,-1z"/>
   <rect class="fil1" x="241" y="35" width="221.463" height="23.5519" rx="4" ry="8"/>
   <path class="fil2" d="M335 0l-86 0c-4,0 -8,4 -8,8l0 8c0,4 4,8 8,8l86 0c4,0 8,-4 8,-8l0 -8c0,-4 -4,-8 -8,-8z"/>
   <path class="fil3" d="M248 179c1,0 2,0 3,-1 0,0 1,-1 1,-1 0,-1 -1,-1 -1,-2 0,0 -1,0 -2,0l-1 -1c-1,0 -2,-1 -3,-1 -1,0 -1,-1 -2,-1 0,-1 -1,-1 -1,-2 0,0 -1,-1 -1,-2 0,-2 1,-3 3,-5 1,-1 3,-1 5,-1 1,0 2,0 3,0 1,0 1,0 2,1 1,0 1,0 1,1 1,0 1,1 1,1 0,1 0,1 0,1 -1,1 -1,1 -1,1 -1,0 -2,0 -2,-1 -1,0 -2,0 -3,0 -1,0 -2,0 -2,1 -1,0 -1,0 -1,1 0,0 0,1 0,1 1,0 1,0 2,1l2 0c1,1 2,1 2,1 1,1 2,1 2,2 1,0 1,1 1,1 1,1 1,2 1,3 0,1 0,2 -1,2 0,1 -1,2 -1,2 -1,1 -2,1 -3,2 -1,0 -2,0 -4,0 -1,0 -1,0 -2,0 -1,0 -2,-1 -3,-1 0,0 -1,-1 -1,-1 0,-1 -1,-1 -1,-2 0,0 1,-1 1,-1 0,-1 1,-1 1,-1 1,0 1,1 2,1 1,1 2,1 3,1z"/>
   <path id="1" class="fil3" d="M274 179c0,1 0,2 -1,3 -1,0 -2,0 -3,1 -1,0 -2,0 -3,0 -2,0 -3,0 -4,0 -1,-1 -1,-1 -2,-2 -1,0 -1,-1 -2,-2 0,-1 0,-2 0,-3l0 -9c0,0 0,-1 1,-1 0,0 0,0 1,0 1,0 2,0 2,1 1,0 1,1 1,2l0 7c0,1 0,2 1,2 0,1 1,1 2,1 0,0 1,0 1,0 0,0 1,0 1,0l0 -12c0,0 1,-1 1,-1 0,0 1,0 1,0 1,0 2,0 2,1 1,0 1,1 1,2l0 10z"/>
   <path id="2" class="fil3" d="M285 183c-1,0 -1,0 -2,0 0,0 -1,0 -1,-1l0 6c0,0 -1,0 -1,1 -1,0 -1,0 -2,0 -1,0 -1,-1 -2,-1 0,0 0,-1 0,-2l0 -16c0,-1 0,-1 0,-2 0,0 1,0 1,0 1,-1 2,-1 3,-2 1,0 2,0 3,0 1,0 2,0 4,1 1,0 2,0 2,1 1,1 2,2 2,3 1,1 1,2 1,3 0,2 0,3 -1,4 0,1 -1,2 -2,3 0,0 -1,1 -2,1 -1,1 -2,1 -3,1zm-1 -4c1,0 2,0 3,-1 0,-1 1,-2 1,-4 0,-1 -1,-2 -1,-3 -1,-1 -2,-1 -3,-1 0,0 -1,0 -1,0 -1,0 -1,0 -1,1l0 7c0,1 0,1 1,1 0,0 0,0 1,0z"/>
   <path id="3" class="fil3" d="M299 177c0,1 1,1 2,2 0,0 1,0 2,0 1,0 2,0 3,0 1,0 1,-1 2,-1 0,0 0,0 1,1 0,0 0,1 0,1 0,0 0,1 0,1 -1,1 -1,1 -2,1 0,0 -1,1 -2,1 0,0 -1,0 -2,0 -1,0 -3,0 -4,-1 -1,0 -2,-1 -2,-1 -1,-1 -2,-2 -2,-3 -1,-1 -1,-2 -1,-4 0,-1 0,-2 1,-3 0,-1 1,-2 1,-3 1,-1 2,-1 3,-1 1,-1 2,-1 3,-1 1,0 2,0 3,1 1,0 2,0 3,1 0,1 1,1 1,2 1,1 1,2 1,3 0,1 0,1 -1,2 0,0 -1,0 -1,0l-9 2zm3 -7c-1,0 -2,0 -2,1 -1,0 -1,1 -1,2l6 -1c0,0 0,-1 -1,-1 0,-1 -1,-1 -2,-1z"/>
   <path id="4" class="fil3" d="M317 182c-1,0 -1,1 -1,1 -1,0 -1,0 -2,0 -1,0 -1,0 -2,-1 0,0 0,-1 0,-2l0 -10c0,0 0,-1 0,-1 0,-1 1,-1 1,-1 1,-1 2,-1 3,-2 1,0 2,0 3,0 2,0 4,1 4,2 0,1 0,1 -1,1 0,1 0,1 0,1 0,0 -1,0 -2,0 0,0 -1,0 -2,0 0,0 -1,1 -1,1l0 11z"/>
   <path id="5" class="fil3" d="M348 182c-1,0 -1,1 -1,1 -1,0 -1,0 -2,0 -1,0 -1,0 -2,-1 0,0 0,-1 0,-2l0 -8c0,-1 -1,-1 -1,-1 0,-1 -1,-1 -2,-1 0,0 0,0 -1,0 0,0 -1,1 -1,1 0,0 0,0 0,0 0,0 0,0 0,1l0 10c0,0 0,1 -1,1 0,0 -1,0 -1,0 -1,0 -2,0 -2,-1 -1,0 -1,-1 -1,-2l0 -8c0,-1 0,-1 -1,-1 0,-1 -1,-1 -1,-1 -1,0 -1,0 -1,0 -1,0 -1,1 -1,1l0 11c-1,0 -1,1 -1,1 -1,0 -1,0 -2,0 -1,0 -1,0 -2,-1 0,0 0,-1 0,-2l0 -10c0,0 0,-1 0,-1 0,-1 1,-1 1,-1 1,-1 2,-1 3,-1 1,-1 2,-1 3,-1 1,0 2,0 3,0 0,1 1,1 2,2 1,-1 1,-1 2,-1 1,-1 2,-1 3,-1 1,0 2,0 3,0 0,1 1,1 2,1 0,1 1,1 1,2 0,1 1,2 1,3l0 10z"/>
   <path id="6" class="fil3" d="M357 179c0,0 1,0 1,0 1,0 1,0 1,0l0 -3 -2 0c-1,0 -2,0 -2,0 0,1 -1,1 -1,2 0,0 1,0 1,1 0,0 1,0 2,0zm0 -13c1,0 2,0 3,0 1,1 2,1 2,1 1,1 1,2 2,2 0,1 0,2 0,3l0 7c0,1 0,1 0,2 0,0 -1,0 -1,1 -1,0 -2,0 -3,1 -1,0 -2,0 -3,0 -2,0 -4,0 -5,-1 -2,-1 -3,-3 -3,-4 0,-2 1,-3 2,-4 1,-1 2,-1 4,-1l4 -1 0 0c0,-1 0,-1 0,-2 -1,0 -2,0 -3,0 -1,0 -2,0 -2,0 -1,0 -2,1 -3,1 0,0 0,-1 0,-1 0,0 -1,-1 -1,-1 0,-1 1,-2 2,-2 1,0 1,-1 2,-1 1,0 2,0 3,0z"/>
   <path id="7" class="fil3" d="M372 182c0,0 -1,1 -1,1 0,0 -1,0 -1,0 -1,0 -2,0 -2,-1 -1,0 -1,-1 -1,-2l0 -10c0,0 0,-1 0,-1 1,-1 1,-1 2,-1 0,-1 1,-1 2,-2 1,0 2,0 4,0 2,0 3,1 3,2 0,1 0,1 0,1 0,1 0,1 -1,1 0,0 -1,0 -1,0 -1,0 -2,0 -2,0 -1,0 -2,1 -2,1l0 11z"/>
   <path id="8" class="fil3" d="M389 174l5 6c0,1 0,1 0,2 -1,0 -2,1 -2,1 -1,0 -2,0 -2,-1 -1,0 -1,-1 -2,-1l-4 -5 0 6c0,0 0,1 -1,1 0,0 0,0 -1,0 -1,0 -2,0 -2,-1 0,0 -1,-1 -1,-2l0 -19c1,0 1,0 1,0 1,0 1,0 2,0 1,0 1,0 2,0 0,0 0,1 0,2l0 9 6 -6c1,0 2,1 3,1 0,0 1,1 1,2 0,0 0,1 -1,1 0,1 -1,1 -2,2l-2 2z"/>
   <path id="9" class="fil3" d="M400 177c0,1 1,1 1,2 1,0 2,0 3,0 1,0 2,0 3,0 0,0 1,-1 2,-1 0,0 0,0 0,1 1,0 1,1 1,1 0,0 0,1 -1,1 0,1 0,1 -1,1 0,0 -1,1 -2,1 -1,0 -1,0 -2,0 -2,0 -3,0 -4,-1 -1,0 -2,-1 -3,-1 -1,-1 -1,-2 -2,-3 0,-1 0,-2 0,-4 0,-1 0,-2 0,-3 1,-1 1,-2 2,-3 1,-1 2,-1 3,-1 1,-1 2,-1 3,-1 1,0 2,0 3,1 1,0 2,0 2,1 1,1 2,1 2,2 0,1 0,2 0,3 0,1 0,1 0,2 0,0 -1,0 -2,0l-8 2zm3 -7c-1,0 -2,0 -2,1 -1,0 -1,1 -2,2l7 -1c0,0 -1,-1 -1,-1 -1,-1 -1,-1 -2,-1z"/>
   <path id="10" class="fil3" d="M417 177c0,1 1,1 1,2 0,0 1,0 2,0 0,0 0,0 1,0 0,0 0,0 1,0 0,0 0,0 0,0 0,1 0,1 0,1 0,1 0,2 -1,2 0,1 -1,1 -3,1 -2,0 -3,0 -4,-1 -1,-1 -2,-3 -2,-4l0 -15c1,0 1,0 1,-1 1,0 1,0 2,0 1,0 1,1 2,1 0,0 0,1 0,2l0 2 5 0c0,0 0,0 0,1 0,0 0,0 0,1 0,1 0,1 0,1 0,1 -1,1 -1,1l-4 0 0 6z"/>
  </g>
 </g>
</svg>
